HIERARCHY
ROOT Hips
{
	OFFSET 0.000000 0.000000 0.000000
	CHANNELS 6 Xposition Yposition Zposition Zrotation Yrotation Xrotation 
	JOINT LeftUpLeg_virtual
	{
		OFFSET 0.000000 0.000000 0.000000
		CHANNELS 3 Zrotation Yrotation Xrotation
		JOINT LeftUpLeg
		{
			OFFSET 8.479694 -4.795517 -0.379053
			CHANNELS 3 Zrotation Yrotation Xrotation
			JOINT LeftLeg
			{
				OFFSET 0.485052 -32.551468 0.112863
				CHANNELS 3 Zrotation Yrotation Xrotation
				JOINT LeftFoot
				{
					OFFSET 0.438033 -32.635670 -3.012641
					CHANNELS 3 Zrotation Yrotation Xrotation
					JOINT LeftToeBase
					{
						OFFSET 0.970169 -13.225353 11.864223
						CHANNELS 3 Zrotation Yrotation Xrotation
						End Site
						{
							OFFSET 0.000000 0.000000 0.000000
						}
					}
				}
			}
		}
	}
	JOINT RightUpLeg_virtual
	{
		OFFSET 0.000000 0.000000 0.000000
		CHANNELS 3 Zrotation Yrotation Xrotation
		JOINT RightUpLeg
		{
			OFFSET -8.479694 -4.795517 -0.379053
			CHANNELS 3 Zrotation Yrotation Xrotation
			JOINT RightLeg
			{
				OFFSET -0.484100 -32.551483 0.112903
				CHANNELS 3 Zrotation Yrotation Xrotation
				JOINT RightFoot
				{
					OFFSET -0.438985 -32.635651 -3.012681
					CHANNELS 3 Zrotation Yrotation Xrotation
					JOINT RightToeBase
					{
						OFFSET -0.970169 -13.225354 11.864223
						CHANNELS 3 Zrotation Yrotation Xrotation
						End Site
						{
							OFFSET 0.000000 0.000000 0.000000
						}
					}
				}
			}
		}
	}
	JOINT Spine_virtual
	{
		OFFSET 0.000000 0.000000 0.000000
		CHANNELS 3 Zrotation Yrotation Xrotation
		JOINT Spine
		{
			OFFSET 0.000000 7.722015 1.166203
			CHANNELS 3 Zrotation Yrotation Xrotation
			JOINT Spine1
			{
				OFFSET 0.000000 12.024086 0.248766
				CHANNELS 3 Zrotation Yrotation Xrotation
				JOINT Spine2
				{
					OFFSET -0.000000 11.503036 -0.491240
					CHANNELS 3 Zrotation Yrotation Xrotation
					JOINT Neck_virtual
					{
						OFFSET 0.000000 0.000000 0.000000
						CHANNELS 3 Zrotation Yrotation Xrotation
						JOINT Neck
						{
							OFFSET 0.000000 18.430687 -3.123054
							CHANNELS 3 Zrotation Yrotation Xrotation
							JOINT Head
							{
								OFFSET -0.000000 9.051071 1.034021
								CHANNELS 3 Zrotation Yrotation Xrotation
								End Site
								{
									OFFSET 0.000000 0.000000 0.000000
								}
							}
						}
					}
					JOINT LeftShoulder_virtual
					{
						OFFSET 0.000000 0.000000 0.000000
						CHANNELS 3 Zrotation Yrotation Xrotation
						JOINT LeftShoulder
						{
							OFFSET 6.197824 13.665230 -4.064723
							CHANNELS 3 Zrotation Yrotation Xrotation
							JOINT LeftArm
							{
								OFFSET 7.778132 -0.187073 -1.709282
								CHANNELS 3 Zrotation Yrotation Xrotation
								JOINT LeftForeArm
								{
									OFFSET 21.954697 0.000000 -2.041093
									CHANNELS 3 Zrotation Yrotation Xrotation
									JOINT LeftHand
									{
										OFFSET 22.992908 0.000000 -0.870901
										CHANNELS 3 Zrotation Yrotation Xrotation
										End Site
										{
											OFFSET 0.000000 0.000000 0.000000
										}
									}
								}
							}
						}
					}
					JOINT RightShoulder_virtual
					{
						OFFSET 0.000000 0.000000 0.000000
						CHANNELS 3 Zrotation Yrotation Xrotation
						JOINT RightShoulder
						{
							OFFSET -6.197824 13.665230 -4.064723
							CHANNELS 3 Zrotation Yrotation Xrotation
							JOINT RightArm
							{
								OFFSET -7.778132 -0.187073 -1.709282
								CHANNELS 3 Zrotation Yrotation Xrotation
								JOINT RightForeArm
								{
									OFFSET -21.954697 0.000000 -2.041093
									CHANNELS 3 Zrotation Yrotation Xrotation
									JOINT RightHand
									{
										OFFSET -22.992908 0.000000 -0.870901
										CHANNELS 3 Zrotation Yrotation Xrotation
										End Site
										{
											OFFSET 0.000000 0.000000 0.000000
										}
									}
								}
							}
						}
					}
				}
			}
		}
	}
}
MOTION
Frames: 11
Frame Time: 0.033333
8.225967 78.969536 43.793571 -179.930405 3.258898 -179.991262 -3.676797 0.020684 10.958075 0.422700 -2.179778 -32.067079 8.120015 3.962296 29.233066 -4.596515 -5.594324 -14.161240 0.000000 0.000000 0.000000 -0.137349 -0.740747 10.725414 2.382861 5.186856 -30.914440 -1.314265 1.755930 32.987536 6.135808 3.397442 -16.927273 0.000000 0.000000 0.000000 2.879138 1.432482 -2.891935 -2.768842 -1.351345 -3.116993 -0.412325 -1.871986 9.559371 -0.010240 -0.023170 0.013769 -0.830825 -0.437362 11.089193 0.379322 -0.784611 -3.449722 0.000000 0.000000 0.000000 0.407328 0.277821 7.939446 -10.561634 -6.189882 -0.534932 -62.936225 -2.646813 9.057283 0.470026 -19.992785 3.137246 0.000000 0.000000 0.000000 -3.191534 1.687958 7.540227 24.410094 0.160438 4.584830 48.721751 5.469236 14.536159 -4.466622 25.751003 -2.628305 0.000000 0.000000 0.000000 
8.161930 78.978790 43.851562 -179.966879 3.399198 -179.998557 -3.635039 -0.199230 10.979019 0.536774 -2.586351 -32.113418 8.317720 4.086824 29.380745 -4.399119 -5.370758 -14.341463 0.000000 0.000000 0.000000 -0.417675 -0.834684 10.852869 2.721236 4.991677 -30.870498 -1.217763 1.620923 33.296916 6.016720 3.038203 -17.165886 0.000000 0.000000 0.000000 2.853487 1.367297 -2.727036 -2.763355 -1.374329 -3.141083 -0.388103 -1.933059 9.442159 -0.004335 -0.045536 -0.018244 -0.767113 -0.441475 11.019101 0.392227 -0.742068 -3.438949 0.000000 0.000000 0.000000 0.452412 0.301268 7.873957 -10.680637 -6.096062 -0.507759 -62.878230 -2.314214 9.015238 0.562909 -20.132712 3.209962 0.000000 0.000000 0.000000 -3.148883 1.743942 7.515571 24.400461 0.181494 4.581411 48.907942 5.377064 14.242433 -4.521461 25.700598 -2.637620 0.000000 0.000000 0.000000 
8.122008 78.989052 43.913601 179.998707 3.774446 179.958942 -3.665010 -0.176881 11.076108 0.538938 -2.534288 -32.106260 8.296827 4.279963 29.248444 -4.273106 -5.253701 -14.318862 0.000000 0.000000 0.000000 -0.324987 -1.129826 10.834319 2.590475 5.125883 -30.890774 -1.126142 2.034475 33.144176 6.224710 3.056991 -17.104389 0.000000 0.000000 0.000000 2.823300 1.405283 -2.498170 -2.684693 -1.249765 -3.128737 -0.377353 -1.884236 9.335344 0.004809 0.007868 -0.036678 -0.743429 -0.482435 10.861766 0.471463 -0.716965 -3.370095 0.000000 0.000000 0.000000 0.441963 0.228263 7.775034 -10.749335 -6.084969 -0.479586 -62.839748 -2.116210 8.723058 0.567993 -20.141255 3.248096 0.000000 0.000000 0.000000 -3.168541 1.681543 7.357999 24.475430 0.111691 4.647002 49.167779 5.349475 13.488443 -4.537245 25.562096 -2.603741 0.000000 0.000000 0.000000 
8.088028 79.002518 44.019276 179.962685 3.974169 -179.975471 -3.728840 -0.121415 11.180578 0.514754 -2.339381 -32.270089 8.187551 4.165218 28.990861 -4.171870 -5.176998 -14.170600 0.000000 0.000000 0.000000 -0.159244 -1.457103 10.818295 2.382836 5.224814 -30.870655 -1.090801 2.402208 32.744432 6.443077 3.086721 -17.059057 0.000000 0.000000 0.000000 2.786294 1.400467 -2.352215 -2.560606 -1.152527 -3.161829 -0.406001 -1.887961 9.159115 -0.002170 0.021654 -0.013005 -0.719876 -0.413118 10.652788 0.569479 -0.703943 -3.330118 0.000000 0.000000 0.000000 0.464422 0.232525 7.644895 -10.817466 -6.125302 -0.407533 -62.826211 -2.031732 8.554366 0.594472 -20.127801 3.227818 0.000000 0.000000 0.000000 -3.176065 1.632796 7.192774 24.470725 0.089958 4.715183 49.588492 5.285193 12.540644 -4.597326 25.424192 -2.783145 0.000000 0.000000 0.000000 
8.028119 79.019844 44.172180 179.975539 3.984314 179.938438 -3.663006 -0.109014 11.055325 0.451399 -2.215132 -32.100182 8.072679 4.275681 28.816391 -4.187791 -5.251351 -13.977191 0.000000 0.000000 0.000000 -0.110355 -1.462279 10.778212 2.314554 5.217535 -30.687538 -1.005539 2.573025 32.446807 6.501275 2.931070 -16.976664 0.000000 0.000000 0.000000 2.806798 1.334707 -2.189067 -2.408369 -1.055605 -3.118150 -0.363640 -1.943583 9.043291 0.044610 -0.010982 -0.017972 -0.867872 -0.616762 10.457102 0.645646 -0.642253 -3.208397 0.000000 0.000000 0.000000 0.328943 0.243271 7.499578 -10.873265 -6.155137 -0.339391 -62.750492 -1.988968 8.520344 0.614070 -20.060749 3.269478 0.000000 0.000000 0.000000 -3.335381 1.598134 7.057491 24.496540 0.187005 4.840419 50.013357 5.197861 11.626057 -4.683832 25.331821 -2.926022 0.000000 0.000000 0.000000 
7.950019 79.037064 44.339966 179.978271 3.898723 179.975758 -3.508897 0.014162 10.860819 0.354958 -2.109967 -32.029660 7.865799 4.479957 28.623021 -4.304223 -5.434309 -13.656456 0.000000 0.000000 0.000000 0.033636 -1.477165 10.653456 2.182754 5.137212 -30.641574 -1.002730 2.733353 32.269816 6.615866 2.854949 -16.931947 0.000000 0.000000 0.000000 2.916528 1.274030 -2.188909 -2.201682 -0.931042 -3.139057 -0.544443 -1.967294 8.956234 -0.016445 0.010771 -0.049860 -0.847260 -0.438274 10.340316 0.749255 -0.613388 -2.965441 0.000000 0.000000 0.000000 0.359912 0.160339 7.354117 -10.951391 -6.096097 -0.223823 -62.749016 -1.846105 8.592394 0.627588 -20.038346 3.253103 0.000000 0.000000 0.000000 -3.330510 1.651044 6.928783 24.509948 0.364327 5.042520 50.445066 4.878328 11.052749 -4.847130 25.497718 -3.103022 0.000000 0.000000 0.000000 
7.843031 79.064644 44.493111 179.954311 3.380875 179.935596 -3.389402 -0.052923 10.722774 0.234980 -1.939709 -31.939925 7.580702 4.802750 28.394893 -4.547962 -5.719661 -13.280099 0.000000 0.000000 0.000000 -0.188071 -1.856381 10.531943 2.428159 5.176911 -30.538008 -1.058311 3.126915 32.137420 6.582318 2.586322 -16.608693 0.000000 0.000000 0.000000 3.111553 1.204934 -2.219816 -2.071975 -0.764754 -3.168125 -0.701596 -1.978801 8.915516 0.048265 0.003805 -0.012109 -0.982685 -0.536660 10.189695 0.873310 -0.606651 -2.605342 0.000000 0.000000 0.000000 0.213415 0.131419 7.292743 -11.083893 -6.183302 -0.122107 -62.525041 -1.700558 8.705266 0.586454 -20.204649 3.373375 0.000000 0.000000 0.000000 -3.519897 1.520772 6.775710 24.378118 0.442756 5.224664 50.798207 4.463612 10.917794 -5.027730 25.748025 -3.188603 0.000000 0.000000 0.000000 
7.760089 79.122597 44.632149 -179.934900 2.940328 179.967329 -3.140566 0.021226 10.590353 0.085784 -1.672942 -31.875400 7.236235 5.095879 28.088596 -4.883700 -6.039838 -12.749103 0.000000 0.000000 0.000000 0.418507 -1.781028 10.423600 1.901409 4.899302 -30.625643 -1.142257 3.029254 32.283169 6.591261 2.433220 -16.673450 0.000000 0.000000 0.000000 3.406753 1.141985 -2.345378 -1.924200 -0.576911 -3.287945 -0.797122 -2.011308 8.894368 -0.026108 -0.011926 -0.036043 -1.100133 -0.530492 10.158641 0.917272 -0.548673 -2.100742 0.000000 0.000000 0.000000 0.085911 0.117687 7.201604 -11.253825 -6.022640 0.010160 -62.179078 -1.496169 8.993051 0.625213 -20.509969 3.403690 0.000000 0.000000 0.000000 -3.663222 1.634537 6.675242 24.240616 0.679249 5.533086 51.031912 3.949788 11.163037 -5.278500 26.122146 -3.322426 0.000000 0.000000 0.000000 
7.727239 79.200294 44.733150 -179.956401 2.303644 179.942386 -3.043309 -0.244784 10.525563 -0.161576 -0.884990 -31.776243 6.779164 4.911899 27.735790 -5.215009 -6.332882 -12.203435 0.000000 0.000000 0.000000 0.831460 -1.868331 10.360590 1.519804 4.707342 -30.679830 -1.286426 3.074946 32.418342 6.519181 2.218581 -16.633850 0.000000 0.000000 0.000000 3.607272 1.055525 -2.455796 -1.872240 -0.426207 -3.525486 -0.933087 -2.042351 8.913675 0.006416 -0.016477 -0.040103 -1.297763 -0.617578 10.044973 0.903968 -0.517486 -1.490023 0.000000 0.000000 0.000000 -0.099756 0.101479 7.071351 -11.407574 -5.828738 0.197657 -61.503989 -1.559936 9.815481 0.740132 -20.901982 3.476190 0.000000 0.000000 0.000000 -3.847586 1.483591 6.590447 24.053443 1.073911 5.940014 51.067941 3.588160 11.553597 -5.577347 26.261268 -3.453369 0.000000 0.000000 0.000000 
7.727691 79.271378 44.781841 -179.980525 1.880901 179.982834 -2.875783 -0.502565 10.474739 -0.272525 -0.502600 -31.794869 6.479072 5.198612 27.577620 -5.512510 -6.562176 -11.731250 0.000000 0.000000 0.000000 1.222828 -2.004500 10.305470 1.129665 4.753067 -30.750410 -1.439397 3.108321 32.609041 6.385891 2.032055 -16.562054 0.000000 0.000000 0.000000 3.736861 0.927222 -2.588123 -1.852505 -0.221354 -3.755036 -1.069917 -2.036977 8.798248 -0.022727 -0.010552 -0.017641 -1.379175 -0.555801 9.996976 0.839047 -0.537460 -0.878768 0.000000 0.000000 0.000000 -0.157110 0.100914 7.007925 -11.424084 -5.800923 0.262016 -60.478723 -2.032460 11.519197 0.849918 -21.145151 3.758411 0.000000 0.000000 0.000000 -3.945461 1.425282 6.558122 23.898548 1.516110 6.300289 50.799406 3.582320 11.780837 -5.826875 25.982950 -3.357262 0.000000 0.000000 0.000000 
7.767563 79.298332 44.777363 -179.985785 1.725541 179.978900 -2.699388 -0.882929 10.504017 -0.387455 -0.055372 -31.920046 6.298025 5.361048 27.804995 -5.628187 -6.627713 -11.500022 0.000000 0.000000 0.000000 1.572994 -2.185336 10.244047 0.820404 4.923299 -30.851606 -1.406025 3.358115 32.859845 6.168000 1.857752 -16.611307 0.000000 0.000000 0.000000 3.838410 0.646830 -2.650141 -1.855198 -0.073579 -4.095528 -1.174986 -2.038442 8.695031 0.010249 -0.003079 -0.002712 -1.509815 -0.707476 9.884482 0.624719 -0.516199 -0.237270 0.000000 0.000000 0.000000 -0.298066 0.113081 6.880556 -11.422130 -5.894861 0.378633 -59.176629 -3.196175 14.524360 1.048772 -21.154850 4.206080 0.000000 0.000000 0.000000 -4.102838 1.435954 6.450175 23.909700 2.078573 6.708067 50.256809 4.174606 11.618130 -6.089618 25.122402 -3.331725 0.000000 0.000000 0.000000 
